<?xml version="1.0" encoding="UTF-8"?><!DOCTYPE svg PUBLIC "-//W3C//DTD SVG 1.1//EN" "http://www.w3.org/Graphics/SVG/1.1/DTD/svg11.dtd"><svg xmlns="http://www.w3.org/2000/svg" xmlns:xlink="http://www.w3.org/1999/xlink"><defs/><symbol id="icon-chef" viewBox="0 0 100 100"><path d="M49.6874823,6.00000951 C38.3646575,6.00000951 28.7157914,13.1792292 24.9379019,23.2681746 C15.7143335,26.1804206 9,34.7990337 9,44.9945863 C9,55.2445411 15.7934659,63.8573906 25.0857488,66.720922 L25.0857488,90.6467404 C25.0859056,92.2224869 26.3567258,93.4998424 27.9244104,93.5 L71.4505542,93.5 C73.0182388,93.4998424 74.2890591,92.2224869 74.2892158,90.6467404 L74.2892158,66.720922 C83.5814987,63.8573906 90.3749684,55.2445411 90.3749684,44.9945863 C90.3749684,34.7990242 83.6606122,26.1804206 74.4370628,23.268165 C70.6591732,13.1792292 61.0103166,6 49.6874823,6 L49.6874823,6.00000951 Z M49.6874981,13 C58.5855216,13 66.0586928,18.8638123 68.5591197,26.9442311 C68.8437107,27.8633258 69.5919745,28.5617154 70.5249137,28.7789983 C77.6371606,30.4795758 82.9374981,36.9083202 82.9374981,44.6144782 C82.9374981,52.5561186 77.3033395,59.0840511 69.8509272,60.5346124 C68.5726105,60.7799542 67.6510832,61.9080801 67.6604711,63.2161502 L67.6604711,76.2289292 L31.7145252,76.2289292 L31.7145252,63.2161502 C31.7239131,61.9080801 30.8023858,60.7799542 29.5240691,60.5346124 C22.0716477,59.0840511 16.4374981,52.5561186 16.4374981,44.6144782 C16.4374981,36.9083202 21.7377997,30.4795758 28.8500826,28.7789983 C29.7830217,28.5617154 30.5312856,27.8633258 30.8158765,26.9442311 C33.3162945,18.8638123 40.7894926,13 49.6874981,13 L49.6874981,13 Z M49.6874981,27.3407419 C48.2377981,27.3407419 47.0624981,28.5961284 47.0624981,30.1447173 L47.0624981,65.6617666 C47.0624981,67.2103087 48.2377981,68.4657419 49.6874981,68.4657419 C51.1372856,68.4657419 52.3124981,67.2103087 52.3124981,65.6617666 L52.3124981,30.1447173 C52.3124981,28.5961284 51.1372856,27.3407419 49.6874981,27.3407419 Z M38.3124981,38.7157419 C36.8627106,38.7157419 35.6874981,39.9644052 35.6874981,41.5048044 L35.6874981,65.6766794 C35.6874981,67.2169857 36.8627106,68.4657419 38.3124981,68.4657419 C39.7621981,68.4657419 40.9374981,67.2169857 40.9374981,65.6766794 L40.9374981,41.5048044 C40.9374981,39.9644052 39.7621981,38.7157419 38.3124981,38.7157419 Z M61.0624981,38.7157419 C59.6127981,38.7157419 58.4374981,39.9644052 58.4374981,41.5048044 L58.4374981,65.6766794 C58.4374981,67.2169857 59.6127981,68.4657419 61.0624981,68.4657419 C62.5122856,68.4657419 63.6874981,67.2169857 63.6874981,65.6766794 L63.6874981,41.5048044 C63.6874981,39.9644052 62.5122856,38.7157419 61.0624981,38.7157419 L61.0624981,38.7157419 Z M31.577033,82.6163172 L67.7145323,82.6163172 L67.7145323,86.9913172 L31.577033,86.9913172 L31.577033,82.6163172 L31.577033,82.6163172 Z"/></symbol><symbol id="icon-clock" viewBox="0 0 24 24"><path d="M15 1H9v2h6V1zm-4 13h2V8h-2v6zm8.03-6.61l1.42-1.42c-.43-.51-.9-.99-1.41-1.41l-1.42 1.42C16.07 4.74 14.12 4 12 4c-4.97 0-9 4.03-9 9s4.02 9 9 9 9-4.03 9-9c0-2.12-.74-4.07-1.97-5.61zM12 20c-3.87 0-7-3.13-7-7s3.13-7 7-7 7 3.13 7 7-3.13 7-7 7z"/></symbol></svg>